<?xml version="1.0" encoding="utf-8"?>
<!-- Generator: Adobe Illustrator 24.1.1, SVG Export Plug-In . SVG Version: 6.00 Build 0)  -->
<svg version="1.1" id="Layer_1" xmlns="http://www.w3.org/2000/svg" xmlns:xlink="http://www.w3.org/1999/xlink" x="0px" y="0px"
	 viewBox="0 0 512 512" style="enable-background:new 0 0 512 512;" xml:space="preserve">
<g>
	<path d="M21.3,32v21.3h448l0,106.7H42.7l0-128H21.3v21.3V32H0v170.7h512v-192H0V32H21.3z M85.3,245.3v21.3h21.3v-21.3H85.3v21.3
		V245.3H64v21.3V288h64v-64H64v21.3H85.3z M85.3,96v21.3h21.3V96H85.3v21.3V96H64v21.3v21.3h64v-64H64V96H85.3z M85.3,394.7V416
		h21.3v-21.3H85.3V416V394.7H64V416v21.3h64v-64H64v21.3H85.3z M21.3,330.7V352h448l0,106.7H42.7l0-128H21.3V352V330.7H0v170.7h512
		v-192H0v21.3H21.3z M21.3,181.3v21.3h448l0,106.7H42.7l0-128H21.3v21.3V181.3H0V352h512V160H0v21.3H21.3z" fill="#088142"/>
</g>
</svg>