<svg version="1.1" xmlns="http://www.w3.org/2000/svg" xmlns:xlink="http://www.w3.org/1999/xlink" 
 x="0px" y="0px"
 viewBox="0 0 1000 1000">
 <g><path 
    fill="#088142"
    d="M311.5,820.4V707.3c0-5.5-1.8-10-5.3-13.6c-3.5-3.5-8.1-5.3-13.6-5.3H104.2c-5.5,0-10,1.8-13.6,5.3c-3.5,3.5-5.3,8.1-5.3,13.6v113.1c0,5.5,1.8,10,5.3,13.6c3.5,3.5,8.1,5.3,13.6,5.3h188.5c5.5,0,10-1.8,13.6-5.3C309.8,830.4,311.5,825.9,311.5,820.4z M311.5,594.2V481.1c0-5.5-1.8-10-5.3-13.6c-3.5-3.5-8.1-5.3-13.6-5.3H104.2c-5.5,0-10,1.8-13.6,5.3c-3.5,3.5-5.3,8.1-5.3,13.6v113.1c0,5.5,1.8,10,5.3,13.6c3.5,3.5,8.1,5.3,13.6,5.3h188.5c5.5,0,10-1.8,13.6-5.3C309.8,604.2,311.5,599.7,311.5,594.2z M613.1,820.4V707.3c0-5.5-1.8-10-5.3-13.6c-3.5-3.5-8.1-5.3-13.6-5.3H405.8c-5.5,0-10,1.8-13.6,5.3c-3.5,3.5-5.3,8.1-5.3,13.6v113.1c0,5.5,1.8,10,5.3,13.6c3.5,3.5,8.1,5.3,13.6,5.3h188.5c5.5,0,10-1.8,13.6-5.3C611.3,830.4,613.1,825.9,613.1,820.4z M311.5,368.1V255c0-5.5-1.8-10-5.3-13.6c-3.5-3.5-8.1-5.3-13.6-5.3H104.2c-5.5,0-10,1.8-13.6,5.3c-3.5,3.5-5.3,8.1-5.3,13.6v113.1c0,5.5,1.8,10,5.3,13.6c3.5,3.5,8.1,5.3,13.6,5.3h188.5c5.5,0,10-1.8,13.6-5.3C309.8,378.1,311.5,373.6,311.5,368.1z M613.1,594.2V481.1c0-5.5-1.8-10-5.3-13.6c-3.5-3.5-8.1-5.3-13.6-5.3H405.8c-5.5,0-10,1.8-13.6,5.3c-3.5,3.5-5.3,8.1-5.3,13.6v113.1c0,5.5,1.8,10,5.3,13.6c3.5,3.5,8.1,5.3,13.6,5.3h188.5c5.5,0,10-1.8,13.6-5.3C611.3,604.2,613.1,599.7,613.1,594.2z M914.6,820.4V707.3c0-5.5-1.8-10-5.3-13.6c-3.5-3.5-8.1-5.3-13.6-5.3H707.3c-5.5,0-10,1.8-13.6,5.3c-3.5,3.5-5.3,8.1-5.3,13.6v113.1c0,5.5,1.8,10,5.3,13.6c3.5,3.5,8.1,5.3,13.6,5.3h188.5c5.5,0,10-1.8,13.6-5.3C912.9,830.4,914.6,825.9,914.6,820.4z M613.1,368.1V255c0-5.5-1.8-10-5.3-13.6c-3.5-3.5-8.1-5.3-13.6-5.3H405.8c-5.5,0-10,1.8-13.6,5.3c-3.5,3.5-5.3,8.1-5.3,13.6v113.1c0,5.5,1.8,10,5.3,13.6c3.5,3.5,8.1,5.3,13.6,5.3h188.5c5.5,0,10-1.8,13.6-5.3C611.3,378.1,613.1,373.6,613.1,368.1z M914.6,594.2V481.1c0-5.5-1.8-10-5.3-13.6c-3.5-3.5-8.1-5.3-13.6-5.3H707.3c-5.5,0-10,1.8-13.6,5.3c-3.5,3.5-5.3,8.1-5.3,13.6v113.1c0,5.5,1.8,10,5.3,13.6c3.5,3.5,8.1,5.3,13.6,5.3h188.5c5.5,0,10-1.8,13.6-5.3C912.9,604.2,914.6,599.7,914.6,594.2z M914.6,368.1V255c0-5.5-1.8-10-5.3-13.6c-3.5-3.5-8.1-5.3-13.6-5.3H707.3c-5.5,0-10,1.8-13.6,5.3c-3.5,3.5-5.3,8.1-5.3,13.6v113.1c0,5.5,1.8,10,5.3,13.6c3.5,3.5,8.1,5.3,13.6,5.3h188.5c5.5,0,10-1.8,13.6-5.3C912.9,378.1,914.6,373.6,914.6,368.1z M990,179.6v640.8c0,25.9-9.2,48.1-27.7,66.6s-40.6,27.7-66.6,27.7H104.2c-25.9,0-48.1-9.2-66.6-27.7C19.2,868.5,10,846.3,10,820.4V179.6c0-25.9,9.2-48.1,27.7-66.6c18.4-18.4,40.6-27.7,66.6-27.7h791.5c25.9,0,48.1,9.2,66.6,27.7S990,153.7,990,179.6z"
    />
</g>
</svg>